<svg width="271" height="78" viewBox="0 0 271 78" fill="none" xmlns="http://www.w3.org/2000/svg">
<path d="M119.699 61.9999C118.888 61.9999 118.205 61.7866 117.65 61.3599C117.138 60.8906 116.882 60.2719 116.882 59.5039V14.5119C116.882 13.7866 117.117 13.1892 117.587 12.7199C118.056 12.2506 118.653 12.0159 119.379 12.0159H134.93C137.49 12.0159 139.794 12.5706 141.842 13.6799C143.933 14.7466 145.576 16.2186 146.771 18.0959C148.008 19.9732 148.626 22.1492 148.626 24.6239C148.626 26.9279 148.008 28.9759 146.771 30.7679C145.533 32.5599 143.912 33.9252 141.906 34.8639C144.765 35.6319 147.069 37.0826 148.818 39.2159C150.568 41.3066 151.443 43.9732 151.443 47.2159C151.443 50.1172 150.781 52.6772 149.458 54.8959C148.136 57.1146 146.301 58.8639 143.954 60.1439C141.65 61.3812 139.005 61.9999 136.018 61.9999H119.699ZM121.874 57.1999H136.018C138.066 57.1999 139.88 56.7946 141.458 55.9839C143.037 55.1732 144.275 54.0212 145.171 52.5279C146.067 51.0346 146.514 49.2639 146.514 47.2159C146.514 45.2959 146.067 43.6319 145.171 42.2239C144.275 40.7732 143.037 39.6639 141.458 38.8959C139.88 38.0852 138.066 37.6799 136.018 37.6799H121.874V57.1999ZM121.874 32.8799H134.93C137.49 32.8799 139.602 32.1546 141.266 30.7039C142.93 29.2532 143.762 27.2266 143.762 24.6239C143.762 22.0639 142.93 20.1226 141.266 18.7999C139.602 17.4772 137.49 16.8159 134.93 16.8159H121.874V32.8799Z" fill="black"/>
<path d="M163.303 61.9999C162.535 61.9999 161.916 61.7866 161.447 61.3599C161.02 60.8906 160.807 60.2719 160.807 59.5039V29.4879C160.807 28.7199 161.02 28.1226 161.447 27.6959C161.916 27.2266 162.535 26.9919 163.303 26.9919C164.028 26.9919 164.604 27.2266 165.031 27.6959C165.5 28.1226 165.734 28.7199 165.734 29.4879V59.5039C165.734 60.2719 165.5 60.8906 165.031 61.3599C164.604 61.7866 164.028 61.9999 163.303 61.9999ZM163.238 20.3359C162.3 20.3359 161.489 19.9946 160.807 19.3119C160.124 18.6292 159.783 17.7972 159.783 16.8159C159.783 15.7492 160.124 14.9172 160.807 14.3199C161.532 13.6799 162.364 13.3599 163.303 13.3599C164.199 13.3599 164.988 13.6799 165.671 14.3199C166.396 14.9172 166.758 15.7492 166.758 16.8159C166.758 17.7972 166.417 18.6292 165.734 19.3119C165.052 19.9946 164.22 20.3359 163.238 20.3359Z" fill="black"/>
<path d="M192.747 62.3199C189.461 62.3199 186.517 61.5519 183.915 60.0159C181.312 58.4372 179.242 56.3039 177.706 53.6159C176.213 50.9279 175.467 47.8986 175.467 44.5279C175.467 41.1146 176.235 38.0639 177.771 35.3759C179.349 32.6879 181.483 30.5759 184.171 29.0399C186.859 27.4612 189.888 26.6719 193.258 26.6719C196.629 26.6719 199.637 27.4612 202.283 29.0399C204.971 30.5759 207.082 32.6879 208.618 35.3759C210.197 38.0639 211.008 41.1146 211.051 44.5279L209.066 46.0639C209.066 49.1359 208.341 51.9092 206.891 54.3839C205.483 56.8159 203.541 58.7572 201.066 60.2079C198.634 61.6159 195.861 62.3199 192.747 62.3199ZM193.258 57.8399C195.733 57.8399 197.93 57.2639 199.85 56.1119C201.813 54.9599 203.349 53.3812 204.458 51.3759C205.61 49.3279 206.186 47.0452 206.186 44.5279C206.186 41.9679 205.61 39.6852 204.458 37.6799C203.349 35.6746 201.813 34.0959 199.85 32.9439C197.93 31.7492 195.733 31.1519 193.258 31.1519C190.826 31.1519 188.629 31.7492 186.667 32.9439C184.704 34.0959 183.147 35.6746 181.995 37.6799C180.843 39.6852 180.266 41.9679 180.266 44.5279C180.266 47.0452 180.843 49.3279 181.995 51.3759C183.147 53.3812 184.704 54.9599 186.667 56.1119C188.629 57.2639 190.826 57.8399 193.258 57.8399ZM208.555 61.9999C207.829 61.9999 207.232 61.7866 206.762 61.3599C206.293 60.8906 206.059 60.2932 206.059 59.5679V48.6239L207.275 43.5679L211.051 44.5279V59.5679C211.051 60.2932 210.816 60.8906 210.346 61.3599C209.877 61.7866 209.28 61.9999 208.555 61.9999Z" fill="black"/>
<path d="M223.899 61.9999C223.174 61.9999 222.576 61.7652 222.107 61.2959C221.638 60.8266 221.403 60.2292 221.403 59.5039V42.8639L218.907 45.3599C218.438 45.8292 217.883 46.0639 217.243 46.0639C216.603 46.0639 216.006 45.8506 215.451 45.4239C214.939 44.9546 214.683 44.3359 214.683 43.5679C214.683 42.8852 214.918 42.3092 215.387 41.8399L221.403 35.8879V14.4479C221.403 13.7652 221.638 13.1892 222.107 12.7199C222.576 12.2079 223.174 11.9519 223.899 11.9519C224.582 11.9519 225.158 12.2079 225.627 12.7199C226.139 13.1892 226.395 13.7652 226.395 14.4479V30.9599L229.659 27.6959C230.171 27.2266 230.747 26.9919 231.387 26.9919C232.07 26.9919 232.646 27.2479 233.115 27.7599C233.627 28.2292 233.883 28.8052 233.883 29.4879C233.883 30.1706 233.648 30.7466 233.179 31.2159L226.395 37.9359V57.0079H228.891C229.616 57.0079 230.214 57.2639 230.683 57.7759C231.152 58.2452 231.387 58.8212 231.387 59.5039C231.387 60.2292 231.131 60.8266 230.619 61.2959C230.15 61.7652 229.574 61.9999 228.891 61.9999H223.899Z" fill="black"/>
<path d="M247.231 77.2319C246.89 77.2319 246.506 77.1466 246.079 76.9759C244.628 76.3359 244.223 75.3119 244.863 73.9039L265.535 28.3359C266.175 26.9706 267.199 26.5866 268.607 27.1839C270.058 27.7812 270.463 28.7839 269.823 30.1919L249.087 75.7599C248.66 76.7412 248.042 77.2319 247.231 77.2319ZM254.335 60.9119C253.695 61.2106 253.098 61.2746 252.543 61.1039C251.988 60.8906 251.54 60.4639 251.199 59.8239L236.927 30.2559C236.628 29.6159 236.586 29.0186 236.799 28.4639C237.012 27.9092 237.439 27.4826 238.079 27.1839C238.719 26.8852 239.316 26.8426 239.871 27.0559C240.426 27.2266 240.852 27.6319 241.151 28.2719L255.167 57.8399C255.508 58.4799 255.615 59.0772 255.487 59.6319C255.359 60.1866 254.975 60.6132 254.335 60.9119Z" fill="black"/>
<path d="M1.29513 32.9207L28.121 75.9998L27.6802 43.9998L0.854248 0.920654L1.29513 32.9207Z" fill="black"/>
<path d="M27.6802 43.9998L53.4591 11.079L53.8999 43.079L28.121 75.9998L27.6802 43.9998Z" fill="black"/>
<path d="M105.21 32.9207L78.3843 75.9998L78.8252 43.9998L105.651 0.920654L105.21 32.9207Z" fill="black"/>
<path d="M78.8252 43.9998L53.0463 11.079L52.6054 43.079L78.3843 75.9998L78.8252 43.9998Z" fill="black"/>
</svg>
